{"title":"Arrow S04E07 Brotherhood 1080P WEB-DL DD5 1 H 264","uid":12798929,"size":1723636647,"categoryP":"video","categoryS":"hd___tv_shows","magnet":"?xt=urn:btih:ef6ff69434ce8c97d0eb98d9856685e9e35bdc07&amp;dn=Arrow+S04E07+Brotherhood+1080P+WEB-DL+DD5+1+H+264&amp;tr=udp%3A%2F%2Ftracker.leechers-paradise.org%3A6969&amp;tr=udp%3A%2F%2Fzer0day.ch%3A1337&amp;tr=udp%3A%2F%2Fopen.demonii.com%3A1337&amp;tr=udp%3A%2F%2Ftracker.coppersurfer.tk%3A6969&amp;tr=udp%3A%2F%2Fexodus.desync.com%3A6969","seeders":0,"leechers":1,"uploader":"jmanwf","files":2,"time":1448023095,"description":"Team Green Arrow's ongoing battle with Damien Darhk is complicated by a shocking revelation. Meanwhile, Thea's bloodlust returns and she loses control in front of Alex (guest star Parker Young).\r\n\r\n\r\nVideo\r\nID : 2\r\nFormat : AVC\r\nFormat/Info : Advanced Video Codec\r\nFormat profile :   \r\nFormat settings, CABAC : Yes\r\nFormat settings, ReFrames : 4 frames\r\nCodec ID : avc1\r\nCodec ID/Info : Advanced Video Coding\r\nDuration : 42mn 12s\r\nBit rate : 4 932 Kbps\r\nWidth : 1 916 pixels\r\nHeight : 1 076 pixels\r\nDisplay aspect ratio : 16:9\r\nFrame rate mode : Constant\r\nFrame rate : 23.976 fps\r\nColor space : YUV\r\nChroma subsampling : 4:2:0\r\nBit depth : 8 bits\r\nScan type : Progressive\r\nBits/(Pixel*Frame) : 0.100\r\nStream size : 1.45 GiB (91%)\r\nLanguage : English\r\nEncoded date : UTC 2015-11-19 11:25:00\r\nTagged date : UTC 2015-11-19 11:28:15\r\nColor range : Limited\r\nColor primaries : BT.709\r\nTransfer characteristics : BT.709\r\nMatrix coefficients : BT.709\r\n\r\nAudio #1\r\nID : 1\r\nFormat : AAC\r\nFormat/Info : Advanced Audio Codec\r\nFormat profile : LC\r\nCodec ID : 40\r\nDuration : 42mn 12s\r\nBit rate mode : Variable\r\nBit rate : 125 Kbps\r\nMaximum bit rate : 197 Kbps\r\nChannel(s) : 2 channels\r\nChannel positions : Front: L R\r\nSampling rate : 48.0 KHz\r\nCompression mode : Lossy\r\nStream size : 37.7 MiB (2%)\r\nLanguage : English\r\nEncoded date : UTC 2015-11-19 11:24:59\r\nTagged date : UTC 2015-11-19 11:28:15\r\n\r\nAudio #2\r\nID : 3\r\nFormat : AC-3\r\nFormat/Info : Audio Coding 3\r\nMode extension : CM (complete main)\r\nFormat settings, Endianness : Big\r\nCodec ID : ac-3\r\nDuration : 42mn 12s\r\nBit rate mode : Constant\r\nBit rate : 384 Kbps\r\nChannel(s) : 6 channels\r\nChannel positions : Front: L C R, Side: L R, LFE\r\nSampling rate : 48.0 KHz\r\nBit depth : 16 bits\r\nCompression mode : Lossy\r\nStream size : 116 MiB (7%)\r\nLanguage : English\r\nEncoded date : UTC 2015-11-19 11:25:00\r\nTagged date : UTC 2015-11-19 11:28:15\r\n\r\nText\r\nID : 4-CC1\r\nFormat : EIA-608\r\nMuxing mode : Final Cut\r\nCodec ID : c608\r\nDuration : 42mn 6s\r\nBit rate mode : Constant\r\nStream size : 0.00 Byte (0%)\r\nLanguage : English\r\nEncoded date : UTC 2015-11-19 11:25:00\r\nTagged date : UTC 2015-11-19 11:25:12\r\n\r\n \nhttps://itunes.apple.com/us/tv-season/arrow-season-4/id1027608805","torrent":{"xt":"urn:btih:ef6ff69434ce8c97d0eb98d9856685e9e35bdc07","amp;dn":"Arrow+S04E07+Brotherhood+1080P+WEB-DL+DD5+1+H+264","amp;tr":["udp%3A%2F%2Ftracker.leechers-paradise.org%3A6969","udp%3A%2F%2Fzer0day.ch%3A1337","udp%3A%2F%2Fopen.demonii.com%3A1337","udp%3A%2F%2Ftracker.coppersurfer.tk%3A6969","udp%3A%2F%2Fexodus.desync.com%3A6969"],"infoHash":"ef6ff69434ce8c97d0eb98d9856685e9e35bdc07","infoHashBuffer":{"type":"Buffer","data":[239,111,246,148,52,206,140,151,208,235,152,217,133,102,133,233,227,91,220,7]},"announce":[],"urlList":[]}}